<svg id="Layer_1" data-name="Layer 1" xmlns="http://www.w3.org/2000/svg" viewBox="0 0 420.87 176.54"><defs><style>.cls-1{fill:#fff;}</style></defs><title>bwzy</title><path class="cls-1" d="M86.65,47.83Q97.93,62.14,97.94,84.75q0,23.44-11.13,38.85T55.73,139q-12.52,0-20.13-5-4.55-3-9.83-10.34v12.64H-.16V.49h26.3V48.85A38.5,38.5,0,0,1,37.19,38.14q7.15-4.61,18.2-4.61Q75.36,33.53,86.65,47.83Zm-22,61.28q5.68-8.21,5.68-21.59,0-10.7-2.79-17.72Q62.25,56.51,48,56.51q-14.42,0-19.82,13-2.79,6.92-2.79,17.9,0,12.92,5.77,21.41t17.59,8.49A18.24,18.24,0,0,0,64.67,109.11Z" transform="translate(0.16 -0.49)"/><path class="cls-1" d="M233.78,57.15V35.74h79.55V57.61L264,114.74h51.11v21.59H230.27V115.85l49.86-58.69Z" transform="translate(0.16 -0.49)"/><path class="cls-1" d="M335.11,155.62l3.32.18a41.64,41.64,0,0,0,7.38-.28,13.27,13.27,0,0,0,5.91-2.12q2.31-1.57,4.29-6.55t1.71-6.09l-37-105H350l22,74.2,20.76-74.2h28l-34.49,98.93q-10,28.61-15.82,35.48T347.12,177q-3.51,0-5.63,0t-6.37-.32Z" transform="translate(0.16 -0.49)"/><polyline class="cls-1" points="180.03 135.84 203.87 135.84 228.03 35.25 202.63 35.25"/><polyline class="cls-1" points="176.44 35.25 151.95 35.25 137.46 107.42 121.77 35.25 93.53 35.25 121.77 135.84 155.09 135.84"/></svg>